<svg role="img" aria-labelledby="title_fb" width="56" height="56" viewBox="0 0 56 56" fill="none" xmlns="http://www.w3.org/2000/svg">
  <title id="title_fb">Facebookでシェア</title>
  <rect width="56" height="56" rx="28" fill="#1877F2"/>
  <path d="M36.622 16H19.3773C18.4815 16.0002 17.6224 16.3562 16.9891 16.9897C16.3557 17.6233 15.9999 18.4824 16 19.3782V36.6222C16.0001 37.518 16.3559 38.377 16.9892 39.0104C17.6226 39.6439 18.4815 39.9998 19.3773 40H27.2253V31.24H24.2591V27.8229H27.2253V25.3062C27.2253 23.8797 27.6198 22.7722 28.4087 21.9837C29.1977 21.1952 30.2677 20.8002 31.6187 20.7986C32.9718 20.7986 33.8478 20.8511 34.2482 20.95V23.992H32.446C31.795 23.992 31.3505 24.13 31.1126 24.406C30.8499 24.7633 30.7238 25.2029 30.7571 25.6451V27.8231H34.1373L33.6866 31.24H30.7571V40H36.622C37.5179 40 38.3771 39.6441 39.0106 39.0106C39.6441 38.3771 40 37.5179 40 36.622V19.3782C40 18.9346 39.9127 18.4953 39.7429 18.0855C39.5732 17.6756 39.3244 17.3032 39.0107 16.9895C38.697 16.6758 38.3246 16.4269 37.9148 16.2572C37.5049 16.0874 37.0656 16 36.622 16V16Z" fill="white"/>
</svg>